<svg xmlns="http://www.w3.org/2000/svg" viewBox="0 0 14.19 13.41"><defs><style>.cls-1{fill:#ccc;}.cls-2{fill:none;stroke:#fff;stroke-miterlimit:10;stroke-width:2px;}</style></defs><title>Recurso 10</title><g id="Capa_2" data-name="Capa 2"><g id="Layer_1" data-name="Layer 1"><path class="cls-1" d="M11.37,2.57c0-.44,0-.71,0-.71H2.82s0,.27,0,.71H0V3A5.87,5.87,0,0,0,1.56,7,3.48,3.48,0,0,0,4,7.87l.44,0A4.11,4.11,0,0,0,6.25,9.35v2H4.2v1.28H3.52v.72h7.14v-.72H10V11.39H7.94v-2A4.11,4.11,0,0,0,9.8,7.84l.44,0A3.48,3.48,0,0,0,12.63,7a5.88,5.88,0,0,0,1.56-4V2.57ZM2.18,6.32A4.53,4.53,0,0,1,1,3.5H2.87a9.26,9.26,0,0,0,.71,2.93c.08.18.16.34.25.51A2.56,2.56,0,0,1,2.18,6.32Zm9.83,0a2.54,2.54,0,0,1-1.65.62c.09-.16.17-.33.25-.51a9.29,9.29,0,0,0,.71-2.93h1.91A4.53,4.53,0,0,1,12,6.32Z"/><line class="cls-2" x1="1.17" y1="0.71" x2="13.17" y2="12.71"/><line class="cls-2" x1="13.17" y1="0.71" x2="1.17" y2="12.71"/></g></g></svg>