<svg xmlns="http://www.w3.org/2000/svg" viewBox="0 0 14.19 11.53"><defs><style>.cls-1{fill:#fff;}</style></defs><title>Recurso 9</title><g id="Capa_2" data-name="Capa 2"><g id="Layer_1" data-name="Layer 1"><path class="cls-1" d="M11.37.71c0-.44,0-.71,0-.71H2.82s0,.27,0,.71H0v.46a5.87,5.87,0,0,0,1.56,4A3.48,3.48,0,0,0,4,6l.44,0A4.11,4.11,0,0,0,6.25,7.5v2H4.2v1.28H3.52v.72h7.14v-.72H10V9.54H7.94v-2A4.11,4.11,0,0,0,9.8,6l.44,0a3.48,3.48,0,0,0,2.39-.86,5.88,5.88,0,0,0,1.56-4V.71ZM2.18,4.46A4.53,4.53,0,0,1,1,1.64H2.87a9.26,9.26,0,0,0,.71,2.93c.08.18.16.34.25.51A2.56,2.56,0,0,1,2.18,4.46Zm9.83,0a2.54,2.54,0,0,1-1.65.62c.09-.16.17-.33.25-.51a9.29,9.29,0,0,0,.71-2.93h1.91A4.53,4.53,0,0,1,12,4.46Z"/></g></g></svg>