<svg xmlns="http://www.w3.org/2000/svg" viewBox="0 0 178.41 53.25"><defs><style>.cls-1,.cls-2{fill:#fff;}.cls-2{fill-rule:evenodd;}</style></defs><title>logo-horizontal</title><g id="Capa_2" data-name="Capa 2"><g id="Layer_1" data-name="Layer 1"><path class="cls-1" d="M65.47,47c0,3.42,2.5,3.7,4.63,3.7.38,0,.76,0,1.07,0l.48-.06.62-3.33a.71.71,0,0,0-.21,0,2.28,2.28,0,0,1-.55,0C70.58,47.33,70,47,70,45.9a4.08,4.08,0,0,1,.15-1.09L72.48,33H65.37l-.65,3.12h2.74l-1.77,9.09A9.16,9.16,0,0,0,65.47,47Zm3.2-17h4.41l.75-3.92H69.44L68.68,30Z"/><path class="cls-1" d="M73.52,43.33C73.52,47.88,76.59,51,82,51a12.27,12.27,0,0,0,5.49-1.25,9.62,9.62,0,0,0,1.93-1.22l-1.17-3.28a10.81,10.81,0,0,1-1.65,1.11,8.93,8.93,0,0,1-4.15,1.11c-3.16,0-4.71-1.91-4.71-4.46a6.68,6.68,0,0,1,6.42-6.66c1.58,0,3.09.62,2.92,1.81l-.21,1h3.75l.45-2.23c.65-3.43-3.84-4.46-6.52-4.46A11,11,0,0,0,73.52,43.27v.05Z"/><path class="cls-1" d="M91.93,50.69H96.3l1.2-6.59c.83-4.43,3.89-7.3,6.53-7.3.55,0,.92.06,1,.06l.86-4.38a5,5,0,0,1-1,0c-2.71,0-5,2.18-6.22,4.58h-.07a12.4,12.4,0,0,0,.58-2.79c0-.87-.65-1.38-2-1.38H92.62L92,36h2c.58,0,.72.38.62.77L91.93,50.69Z"/><path class="cls-1" d="M108.82,43.86a6.78,6.78,0,0,1,6.6-6.68,4.11,4.11,0,0,1,4.38,4.3,6.75,6.75,0,0,1-6.59,6.64,4.1,4.1,0,0,1-4.39-4.26Zm-4.25.2c0,4.7,3.36,7.91,8.27,7.91,5.88,0,11.2-4.61,11.2-10.77,0-4.59-3.32-7.87-8.26-7.87a11,11,0,0,0-11.2,10.73Z"/><path class="cls-1" d="M128.14,50.69h5l8.12-14.61h2.12L144,33h-8.56l-.65,3.12h2L132.09,45a12.29,12.29,0,0,0-.58,1.34,2.37,2.37,0,0,0-.21.63h-.11a2.87,2.87,0,0,0,0-.63,9.06,9.06,0,0,0-.11-1.34l-1.38-8.88h2l.67-3.12h-8.29l-.65,3.12h2.13l2.54,14.61Z"/><path class="cls-1" d="M160,50.72h15.46l1.16-5.88h-3.74l-.48,2.65h-4.71a9.55,9.55,0,0,0-1.14,0,3.47,3.47,0,0,1-.51,0v-.07a9.33,9.33,0,0,0,1.41-1.24l10.44-10.54.55-2.86H163.61l-1.14,5.9h3.72l.48-2.68h4.13a8.78,8.78,0,0,0,1.13,0,4.72,4.72,0,0,1,.51,0v.06A12.39,12.39,0,0,0,171,37.32L160.48,48,160,50.72Z"/><path class="cls-1" d="M32.75,50.69h4.36l1.45-7.62c.65-3.27,2.68-6.63,5.67-6.63,1.55,0,2,.81,2,1.92A9.37,9.37,0,0,1,46,40L44,50.69h4.36l1.47-7.86c.62-3.24,2.68-6.4,5.5-6.4,1.62,0,2.06.81,2.06,2.06.22,1.45-1.17,6.79-1.17,8.54,0,3.35,2.58,3.66,4.42,3.66.55,0,1,0,1.27,0a.65.65,0,0,0,.44,0L63,47.35a.49.49,0,0,0-.2,0,2.65,2.65,0,0,1-.55,0c-.93,0-1.44-.31-1.44-1.44-.25-1.42,1.17-6.69,1.17-8.78,0-3.14-1.93-4.72-4.84-4.72a7.9,7.9,0,0,0-6.56,3.92h-.07a3.92,3.92,0,0,0-4.26-3.92c-3.37,0-6.12,2.93-6.57,3.85h-.07a6.58,6.58,0,0,0,.41-2c0-.89-.54-1.47-2-1.47h-4.6l-.62,3.22h2c.49,0,.69.24.62.72L32.75,50.69Z"/><path class="cls-2" d="M11.3,32a15.74,15.74,0,0,1-3.14-1.39,48.62,48.62,0,0,0,12-3,11.9,11.9,0,0,0,3.5-20.87A12.1,12.1,0,0,0,6.8,9.13,11.87,11.87,0,0,0,9.17,25.85a12.57,12.57,0,0,0,2.29,1.34,7.92,7.92,0,0,1-3.39,3.37,16.58,16.58,0,0,1-4.76-4.26,16.41,16.41,0,1,1,23,3.24,16.72,16.72,0,0,1-3.11,1.85c.55,1,2.25,3.75,4.91,4.72C28.08,36.1,18.51,35.13,11.3,32Z"/><path class="cls-2" d="M148.93,50.92a8.75,8.75,0,0,1-1.78-.79,28.44,28.44,0,0,0,6.53-1.83,6.61,6.61,0,0,0,3.11-2.5c2.26-3,2-6.47-1-8.72a5.91,5.91,0,0,0-3.82-1.23,5.84,5.84,0,0,0-5.1,2.35,6.14,6.14,0,0,0,1.23,9,9.49,9.49,0,0,0,1.48.86,7.06,7.06,0,0,1-2.46,2.06,9.2,9.2,0,0,1-2.69-2.42,9.29,9.29,0,1,1,13,1.83,9.89,9.89,0,0,1-1.76,1,5.91,5.91,0,0,0,2.78,2.68A37.62,37.62,0,0,1,148.93,50.92Z"/></g></g></svg>