<svg xmlns="http://www.w3.org/2000/svg" viewBox="0 0 21 21.01"><defs><style>.cls-1{fill:#ccc;}</style></defs><title>auriculares</title><g id="Capa_2" data-name="Capa 2"><g id="Layer_1" data-name="Layer 1"><path class="cls-1" d="M4.59,16.41H3.94A3.85,3.85,0,0,1,0,12.47,3.86,3.86,0,0,1,3.94,8.53h.66ZM3.28,9.92a2.52,2.52,0,0,0-2,2.55,2.53,2.53,0,0,0,2,2.56Z"/><path class="cls-1" d="M17.06,16.41h-.66V8.53h.66A3.85,3.85,0,0,1,21,12.47,3.85,3.85,0,0,1,17.06,16.41Zm.66-6.49V15a2.52,2.52,0,0,0,2-2.56A2.52,2.52,0,0,0,17.72,9.92Z"/><path class="cls-1" d="M17.72,19.69V18.38a.62.62,0,0,0,.66-.66h1.31A1.92,1.92,0,0,1,17.72,19.69Z"/><rect class="cls-1" x="15.09" y="18.38" width="2.63" height="1.31"/><path class="cls-1" d="M13.47,21a2,2,0,1,1,2-2A2,2,0,0,1,13.47,21Zm0-2.62a.66.66,0,1,0,.66.66A.66.66,0,0,0,13.47,18.38Z"/><path class="cls-1" d="M17.72,7.22H16.41a5.91,5.91,0,1,0-11.81,0H3.28a7.22,7.22,0,1,1,14.44,0Z"/></g></g></svg>