<!-- Generated by IcoMoon.io -->
<svg version="1.1" xmlns="http://www.w3.org/2000/svg" width="34" height="32" viewBox="0 0 34 32">
<title>cup-cross</title>
<path fill="#bababa" d="M27.132 6.133c0-1.050 0-1.694 0-1.694h-20.403s0 0.644 0 1.694h-6.729v1.026c-0 0.011-0 0.023-0 0.036 0 3.675 1.415 7.020 3.731 9.519l-0.008-0.009c1.457 1.293 3.386 2.082 5.5 2.082 0.113 0 0.226-0.002 0.339-0.007l-0.016 0h1.050c1.069 1.558 2.535 2.771 4.255 3.507l0.064 0.024v4.773h-4.892v3.054h-1.623v1.718h17.038v-1.718h-1.575v-2.959h-4.916v-4.773c1.848-0.785 3.36-2.060 4.416-3.662l0.023-0.037h1.050c0.086 0.003 0.186 0.005 0.287 0.005 2.075 0 3.971-0.761 5.427-2.018l-0.011 0.009c2.307-2.493 3.723-5.841 3.723-9.519 0-0.009 0-0.018-0-0.028v0.001-1.026zM5.202 15.081c-1.631-1.78-2.676-4.121-2.815-6.702l-0.001-0.027h4.462c0.196 2.567 0.8 4.943 1.749 7.135l-0.055-0.143c0.191 0.43 0.382 0.811 0.597 1.217-1.509-0.012-2.886-0.57-3.945-1.486l0.008 0.007zM28.659 15.081c-1.049 0.913-2.427 1.472-3.936 1.48h-0.002c0.215-0.382 0.406-0.787 0.597-1.217 0.893-2.049 1.497-4.425 1.69-6.916l0.005-0.076h4.558c-0.175 2.623-1.261 4.962-2.94 6.734l0.005-0.005z"></path>
<path fill="none" stroke="#000" stroke-width="4.7726" stroke-miterlimit="10" stroke-linecap="butt" stroke-linejoin="miter" d="M2.792 1.694l28.635 28.635"></path>
<path fill="none" stroke="#000" stroke-width="4.7726" stroke-miterlimit="10" stroke-linecap="butt" stroke-linejoin="miter" d="M31.427 1.694l-28.635 28.635"></path>
</svg>
