<svg xmlns="http://www.w3.org/2000/svg" viewBox="0 0 13.84 14.09"><defs><style>.cls-1{fill:#fff;}</style></defs><title>Recurso 4</title><g id="Capa_2" data-name="Capa 2"><g id="Layer_1" data-name="Layer 1"><path class="cls-1" d="M9.62,1A6.19,6.19,0,0,0,1.73,2L.49,1,.61,4.91l3.77-.85-1.3-1a4.48,4.48,0,0,1,5.64-.63Z"/><path class="cls-1" d="M0,6.45a6.19,6.19,0,0,0,5.15,6.07L5,14.09,8.2,11.89,5.44,9.18l-.14,1.64a4.49,4.49,0,0,1-3.58-4.4Z"/><path class="cls-1" d="M9.49,11.83A6.19,6.19,0,0,0,12.4,4.42l1.44-.62L10.4,2,9.31,5.75l1.51-.65a4.49,4.49,0,0,1-2.18,5.24Z"/></g></g></svg>