<!-- Generated by IcoMoon.io -->
<svg version="1.1" xmlns="http://www.w3.org/2000/svg" width="40" height="32" viewBox="0 0 40 32">
<title>copa</title>
<path d="M32.821 12.397c-1.165 1.035-2.643 1.581-4.395 1.643 0.229-0.432 0.453-0.877 0.669-1.349 1.171-2.563 1.672-5.469 1.893-7.805h5.080c-0.203 1.872-0.899 5.435-3.248 7.512zM6.613 12.397c-2.352-2.077-3.043-5.64-3.248-7.512h5.085c0.216 2.336 0.72 5.243 1.891 7.805 0.211 0.472 0.435 0.917 0.664 1.349-1.749-0.061-3.221-0.613-4.392-1.643zM31.128 2.408c0.019-1.163-0.024-1.893-0.024-1.893h-22.779c0 0-0.040 0.731-0.013 1.893h-7.512v1.237c0 0.283 0.051 6.949 4.165 10.597 1.712 1.523 3.853 2.291 6.379 2.291 0.379 0 0.771-0.024 1.171-0.061 1.435 1.965 3.088 3.339 4.952 4.024v5.437h-5.472v3.408h-1.803v1.909h19.048v-1.909h-1.805v-3.405h-5.469v-5.44c1.861-0.685 3.52-2.053 4.957-4.024 0.392 0.037 0.792 0.061 1.173 0.061 2.52 0 4.664-0.768 6.371-2.291 4.115-3.653 4.165-10.315 4.165-10.6v-1.235h-7.504z"></path>
</svg>
