<svg xmlns="http://www.w3.org/2000/svg" viewBox="0 0 85.24 32.07"><defs><style>.cls-1{opacity:0.4;}.cls-2,.cls-3,.cls-4{fill:#f2f2f2;}.cls-3{fill-rule:evenodd;}.cls-4{font-size:12px;font-family:Omnes-Medium, Omnes Medium;}.cls-5{letter-spacing:-0.01em;}.cls-6{letter-spacing:-0.03em;}</style></defs><title>logo-softswitch</title><g id="Capa_2" data-name="Capa 2"><g id="Layer_1" data-name="Layer 1"><g class="cls-1"><path class="cls-2" d="M20.1,12c0,2,1.44,2.14,2.67,2.14a4.33,4.33,0,0,0,.62,0l.28,0L24,12.21H23.9a1.41,1.41,0,0,1-.31,0c-.54,0-.86-.2-.86-.82a2.49,2.49,0,0,1,.08-.63l1.33-6.84H20l-.38,1.8h1.58l-1,5.25A5.38,5.38,0,0,0,20.1,12Zm1.85-9.78H24.5L24.93,0H22.39l-.44,2.26Z"/><path class="cls-2" d="M24.74,9.93c0,2.62,1.77,4.43,4.91,4.43a7.13,7.13,0,0,0,3.17-.72,5.1,5.1,0,0,0,1.11-.7L33.26,11a5.57,5.57,0,0,1-1,.64,5.15,5.15,0,0,1-2.4.64,2.44,2.44,0,0,1-2.71-2.58A3.85,3.85,0,0,1,30.9,5.91c.91,0,1.78.36,1.69,1l-.12.58h2.16l.26-1.29c.38-2-2.22-2.58-3.76-2.58A6.32,6.32,0,0,0,24.74,9.9v0Z"/><path class="cls-2" d="M35.36,14.18h2.52l.69-3.8c.47-2.56,2.24-4.21,3.77-4.21.32,0,.53,0,.59,0l.5-2.53a3,3,0,0,1-.6,0,4.36,4.36,0,0,0-3.58,2.65h0a7.58,7.58,0,0,0,.34-1.61c0-.5-.38-.8-1.15-.8H35.76l-.37,1.8h1.13a.33.33,0,0,1,.36.45l-1.51,8Z"/><path class="cls-2" d="M45.1,10.23a3.92,3.92,0,0,1,3.8-3.85,2.37,2.37,0,0,1,2.53,2.48,3.89,3.89,0,0,1-3.8,3.82,2.36,2.36,0,0,1-2.53-2.45Zm-2.45.12a4.44,4.44,0,0,0,4.77,4.56,6.37,6.37,0,0,0,6.46-6.21,4.45,4.45,0,0,0-4.77-4.54,6.34,6.34,0,0,0-6.46,6.19Z"/><path class="cls-2" d="M56.24,14.18h2.89l4.68-8.44H65l.38-1.8H60.48l-.38,1.8h1.15l-2.73,5.12a6.83,6.83,0,0,0-.34.77,2,2,0,0,0-.12.36H58a1.84,1.84,0,0,0,0-.36,4.92,4.92,0,0,0-.06-.77l-.79-5.12h1.15l.38-1.8H53.92l-.38,1.8h1.23l1.47,8.44Z"/><path class="cls-2" d="M74.6,14.19h8.92l.67-3.39H82l-.28,1.52H79c-.24,0-.48,0-.65,0a1.22,1.22,0,0,1-.3,0v0a5.85,5.85,0,0,0,.81-.72l6-6.07.32-1.65H76.7L76,7.29h2.14l.28-1.55h2.38c.26,0,.47,0,.65,0a1.48,1.48,0,0,1,.29,0v0a8.57,8.57,0,0,0-.81.72L74.89,12.6l-.29,1.59Z"/><path class="cls-2" d="M1.23,14.18H3.75l.83-4.4C4.95,7.89,6.12,6,7.85,6,8.74,6,9,6.42,9,7.06a5.67,5.67,0,0,1-.12,1L7.71,14.18h2.52l.85-4.54C11.43,7.77,12.62,6,14.25,6c.93,0,1.19.46,1.19,1.19s-.68,3.92-.68,4.92c0,1.92,1.49,2.12,2.55,2.12a5.41,5.41,0,0,0,.73,0,.42.42,0,0,0,.26,0l.36-1.93-.12,0a1.31,1.31,0,0,1-.31,0c-.54,0-.83-.18-.83-.83-.14-.81.67-3.86.67-5.06a2.52,2.52,0,0,0-2.79-2.73,4.55,4.55,0,0,0-3.78,2.27h0A2.26,2.26,0,0,0,9,3.67,5,5,0,0,0,5.21,5.89h0a3.74,3.74,0,0,0,.24-1.13c0-.51-.31-.84-1.13-.84H1.62L1.27,5.77H2.4c.28,0,.39.14.35.42l-1.52,8Z"/><path class="cls-3" d="M68.23,14.31a5.36,5.36,0,0,1-1-.46A16.91,16.91,0,0,0,71,12.8a3.79,3.79,0,0,0,1.79-1.45,3.36,3.36,0,0,0-.59-5A3.84,3.84,0,0,0,67,7a3.54,3.54,0,0,0,.7,5.18,5.2,5.2,0,0,0,.85.5,4,4,0,0,1-1.42,1.19,5.36,5.36,0,1,1,5.95-.33,5.53,5.53,0,0,1-1,.6,3.43,3.43,0,0,0,1.61,1.55A21.84,21.84,0,0,1,68.23,14.31Z"/><text class="cls-4" transform="translate(0 29.07)">SOF<tspan class="cls-5" x="20.03" y="0">T</tspan><tspan x="25.92" y="0">SWI</tspan><tspan class="cls-6" x="44.86" y="0">T</tspan><tspan x="50.5" y="0">CH</tspan></text></g></g></g></svg>