<svg xmlns="http://www.w3.org/2000/svg" viewBox="0 0 19.24 22.79"><defs><style>.cls-1{fill:#b3b3b3;}</style></defs><title>Recurso 6</title><g id="Capa_2" data-name="Capa 2"><g id="Layer_1" data-name="Layer 1"><path class="cls-1" d="M17.33,4.86l0,0a2.14,2.14,0,1,1-3-3l0,0L12.47,0l-11,11,1.85,1.84a2.13,2.13,0,0,1,3,3l1.91,1.91,11-11ZM9.65,14.25,4.95,9.54l5.37-5.37L15,8.88Z"/><path class="cls-1" d="M15.89,22.79H1.19A1.33,1.33,0,0,1,0,21.45v-5c0-.66.34-1.19,1-1.19s1,.53,1,1.19v4.31H15V16.48c0-.66.34-1.19,1-1.19s1,.53,1,1.19v5A1.26,1.26,0,0,1,15.89,22.79Z"/></g></g></svg>