<svg xmlns="http://www.w3.org/2000/svg" viewBox="0 0 19.5 19.5"><defs><style>.cls-1{fill:none;stroke:#fff;stroke-miterlimit:10;stroke-width:1.5px;}</style></defs><title>telefono</title><g id="Capa_2" data-name="Capa 2"><g id="Layer_1" data-name="Layer 1"><path class="cls-1" d="M7.95,4.11,4.84,1A.88.88,0,0,0,3.6,1L1.27,3.34A1.74,1.74,0,0,0,.86,5.18a23.47,23.47,0,0,0,5.23,8.23,23.49,23.49,0,0,0,8.23,5.23,1.74,1.74,0,0,0,1.84-.41l2.33-2.34a.87.87,0,0,0,0-1.24l-3.1-3.1a.88.88,0,0,0-1.24,0l-1.86,1.86a12.93,12.93,0,0,1-3.72-2.48A13,13,0,0,1,6.08,7.21L7.95,5.35A.88.88,0,0,0,7.95,4.11Z"/></g></g></svg>